<?xml version="1.0" standalone="no"?>
<!DOCTYPE svg PUBLIC "-//W3C//DTD SVG 20010904//EN"
 "http://www.w3.org/TR/2001/REC-SVG-20010904/DTD/svg10.dtd">
<svg version="1.0" xmlns="http://www.w3.org/2000/svg"
 width="512.000000pt" height="512.000000pt" viewBox="0 0 512.000000 512.000000"
 preserveAspectRatio="xMidYMid meet">
<metadata>
Created by potrace 1.14, written by Peter Selinger 2001-2017
</metadata>
<g transform="translate(0.000000,512.000000) scale(0.100000,-0.100000)"
fill="#000000" stroke="none">
<path d="M3628 4023 c-23 -6 -23 -43 -3 -138 22 -105 19 -205 -10 -320 -14
-54 -30 -102 -36 -106 -6 -3 -10 -9 -10 -13 1 -3 1 -7 0 -8 0 -2 -2 -12 -4
-22 -2 -10 -10 -23 -17 -27 -7 -5 -9 -9 -5 -9 5 0 2 -6 -6 -14 -14 -15 -91
-46 -217 -90 -41 -15 -95 -37 -120 -50 -71 -37 -113 -48 -144 -37 -19 8 -26 7
-26 -2 0 -7 -3 -8 -8 -2 -4 6 -11 10 -17 10 -5 0 -36 9 -67 19 -47 16 -60 17
-73 6 -18 -15 -12 -70 11 -107 8 -12 10 -24 5 -28 -5 -3 -12 -1 -16 5 -3 5 -4
10 0 10 3 0 0 10 -7 23 -12 21 -13 21 -18 -13 -13 -78 48 -194 99 -189 14 2
32 -1 40 -5 8 -6 12 -5 8 0 -3 5 8 17 24 27 17 9 27 11 22 4 -4 -6 8 1 26 16
19 15 40 26 47 23 7 -3 14 0 16 6 2 6 13 12 24 13 25 1 76 40 66 49 -3 4 2 4
12 0 13 -5 17 -4 12 4 -4 7 -2 10 6 7 7 -3 53 15 101 39 l88 44 -27 -46 c-15
-26 -30 -49 -33 -52 -4 -3 -25 -27 -46 -55 -22 -27 -43 -51 -47 -53 -5 -2 -8
-9 -8 -15 0 -7 -30 -39 -66 -72 -128 -115 -222 -219 -192 -213 9 2 12 -6 11
-24 -2 -25 0 -26 24 -15 14 6 41 26 61 45 21 18 73 61 117 95 90 69 114 89
198 167 97 90 104 79 21 -31 -43 -57 -46 -63 -15 -29 23 25 62 73 87 107 26
34 67 76 92 92 41 27 47 28 67 15 12 -8 25 -11 28 -7 4 3 7 1 7 -6 0 -8 7 -10
20 -6 12 4 20 2 20 -5 0 -6 10 -8 26 -4 19 5 25 4 20 -5 -5 -8 3 -9 29 -5 21
3 35 2 32 -3 -3 -5 8 -7 25 -5 19 3 28 1 25 -5 -4 -6 5 -9 23 -7 19 2 30 -1
30 -9 0 -8 4 -7 10 3 7 11 10 11 10 2 0 -7 5 -10 11 -6 6 3 15 0 20 -7 6 -10
9 -11 9 -1 0 6 5 12 11 12 5 0 8 -4 5 -9 -3 -5 1 -12 10 -15 8 -3 12 -2 9 4
-8 13 2 12 50 -4 21 -8 41 -18 42 -23 2 -6 15 -8 29 -5 24 4 25 3 15 -16 -7
-13 -18 -19 -31 -17 -11 2 -20 -1 -20 -6 0 -6 -4 -8 -8 -5 -5 3 -25 -3 -44
-14 -20 -10 -39 -16 -42 -12 -4 3 -10 2 -14 -3 -4 -6 -27 -16 -52 -23 -25 -7
-52 -14 -60 -17 -141 -39 -376 -103 -445 -121 -33 -9 -93 -26 -132 -39 -40
-13 -73 -20 -73 -17 0 3 15 22 32 42 19 19 11 14 -17 -12 -46 -43 -128 -88
-159 -88 -8 0 -61 -18 -118 -40 -136 -50 -236 -74 -360 -86 -45 -5 -65 -11
-61 -18 3 -6 0 -5 -8 2 -16 15 -33 16 -24 1 8 -11 -36 11 -46 24 -3 4 -12 0
-20 -9 -11 -13 -11 -18 -1 -21 22 -8 3 -20 -24 -15 -28 5 -27 -1 -9 97 9 48
24 172 25 196 0 23 -3 25 -45 25 -25 -1 -45 -5 -45 -9 0 -5 -4 -6 -9 -3 -4 3
-16 -3 -26 -14 -18 -19 -41 -18 -29 2 4 6 -2 5 -15 -1 -12 -7 -26 -9 -31 -6
-22 14 -52 -41 -112 -206 -8 -24 -56 -53 -190 -115 -36 -17 -45 -19 -41 -7 5
12 0 12 -33 -2 -22 -9 -41 -20 -42 -26 -2 -5 -7 -7 -12 -4 -4 3 -11 -2 -14
-11 -5 -12 2 -11 29 6 19 12 35 17 35 11 0 -6 -7 -11 -15 -11 -8 0 -15 -4 -15
-8 0 -5 -17 -17 -37 -27 -57 -29 -59 -30 -43 -9 14 18 14 18 -2 5 -10 -7 -16
-17 -13 -21 3 -5 1 -11 -5 -15 -5 -3 -10 -1 -10 5 0 11 -47 -18 -85 -53 -20
-18 -20 -18 -23 7 -4 28 -31 58 -33 35 -1 -8 -1 -18 0 -22 1 -5 -3 -6 -9 -2
-6 3 -7 11 -4 17 7 11 -21 7 -60 -8 -43 -17 9 62 107 159 44 44 157 144 248
221 32 27 89 57 117 62 7 1 25 10 40 20 15 10 31 17 36 16 5 -2 19 6 31 18 12
11 24 18 26 15 3 -2 22 4 42 14 20 10 34 21 31 24 -3 3 3 3 13 1 11 -3 26 3
37 15 11 12 25 21 32 21 15 0 36 34 27 43 -8 9 6 57 17 57 5 0 25 11 45 24 20
14 42 23 48 21 7 -3 18 -1 26 4 10 7 11 13 2 30 -7 11 -17 21 -23 21 -6 0 -24
14 -41 32 -28 29 -56 39 -119 41 -10 1 -18 5 -18 9 0 9 -29 6 -47 -5 -6 -4
-14 -1 -16 5 -4 9 -6 9 -6 1 -1 -8 -10 -7 -32 4 -16 8 -41 13 -55 10 -32 -6
-42 12 -18 31 18 14 18 14 -2 10 -13 -3 -21 0 -21 8 0 7 4 11 9 8 13 -8 9 6
-6 22 -11 11 -16 11 -19 1 -3 -6 -6 2 -6 20 -1 38 -16 50 -39 31 -15 -12 -16
-11 -3 5 7 9 20 17 28 17 8 0 11 5 8 10 -4 6 -10 8 -15 5 -11 -7 -25 14 -26
40 -1 11 -5 28 -9 38 -4 10 -3 17 4 17 6 0 11 -4 11 -10 0 -5 9 -10 21 -10 13
0 18 -4 13 -12 -6 -10 -5 -10 8 -1 8 7 18 10 21 6 4 -3 13 -1 20 5 11 10 13 6
12 -18 -2 -29 0 -31 34 -27 40 5 106 28 165 59 49 26 104 39 112 26 3 -5 13
-6 23 -3 19 8 71 16 54 9 -7 -3 -13 -10 -13 -16 0 -6 11 -3 25 6 21 14 25 14
25 2 0 -8 5 -18 12 -22 7 -4 8 -3 4 5 -9 13 23 28 33 15 3 -5 15 -10 26 -11
11 -1 29 -3 39 -5 10 -2 21 3 24 11 3 8 0 11 -6 7 -6 -3 -14 -1 -18 5 -4 7 -3
9 3 6 6 -4 14 0 17 8 3 8 9 14 13 13 10 -4 13 5 13 34 0 13 -21 41 -52 71 -29
28 -45 44 -35 37 9 -7 20 -10 23 -7 4 3 -7 14 -23 24 -19 12 -27 24 -25 37 3
11 0 16 -7 12 -11 -7 -41 15 -41 29 0 13 -26 31 -38 27 -7 -2 -19 1 -26 7 -24
20 -170 62 -225 65 -30 2 -71 -1 -90 -6 -20 -5 -52 -11 -71 -13 -19 -3 -46 -9
-60 -15 -34 -12 -256 -80 -264 -80 -13 0 -46 45 -42 57 3 7 1 12 -5 10 -6 -1
-16 7 -22 18 -46 77 -151 152 -252 180 -39 11 -35 10 -75 18 -63 13 -77 15
-116 21 -22 3 -52 9 -67 12 -112 23 -150 24 -163 0 -7 -12 -9 -29 -4 -41 6
-16 3 -24 -11 -34 -11 -6 -17 -16 -14 -21 3 -5 -4 -12 -15 -15 -18 -6 -19 -9
-8 -23 11 -13 11 -15 -4 -9 -27 10 -30 -8 -5 -30 44 -38 139 -93 162 -93 8 0
23 -4 33 -9 36 -18 128 -51 144 -51 9 0 20 -4 23 -10 3 -5 15 -10 26 -10 10 0
19 -5 19 -12 0 -6 3 -8 7 -5 3 4 12 2 20 -4 7 -6 13 -8 13 -4 0 4 9 -3 21 -16
11 -13 17 -18 14 -11 -6 11 -3 12 14 3 21 -12 29 -31 12 -31 -5 0 -42 -15 -83
-34 -75 -35 -183 -73 -273 -96 -51 -13 -117 -14 -170 -3 -16 3 -51 6 -78 6
-39 0 -47 3 -47 18 0 11 -3 19 -7 19 -14 1 -46 52 -37 59 19 13 64 80 64 95 0
19 -31 21 -48 4 -7 -7 -35 -18 -63 -24 -45 -10 -50 -10 -45 5 5 14 5 14 -6 1
-18 -21 -89 -56 -106 -52 -8 2 -11 -1 -7 -7 3 -6 -1 -11 -9 -11 -9 0 -16 -4
-16 -9 0 -5 -9 -11 -20 -13 -12 -2 -19 -7 -18 -11 2 -5 -11 -16 -28 -25 -67
-36 -204 -164 -204 -191 0 -5 -3 -11 -8 -13 -10 -4 -76 -97 -95 -133 -13 -26
-13 -35 -1 -63 7 -18 20 -40 29 -48 8 -9 13 -20 10 -24 -3 -5 3 -15 15 -22 11
-7 20 -18 20 -25 0 -7 4 -13 8 -13 4 0 16 -14 26 -31 10 -17 20 -28 23 -26 2
3 21 -11 41 -31 20 -20 33 -29 29 -19 -3 9 -2 17 3 17 6 0 10 -5 10 -10 0 -6
12 -15 27 -21 24 -9 30 -7 46 13 11 13 46 53 78 89 75 84 89 103 124 164 15
28 43 73 62 102 34 51 36 52 79 50 24 -1 44 -3 44 -6 0 -7 -33 -31 -72 -51
-61 -33 -113 -131 -85 -159 6 -6 7 -11 1 -11 -5 0 -10 -12 -11 -27 -1 -16 -3
-54 -5 -86 -3 -37 0 -61 8 -68 11 -9 -38 -60 -149 -157 -8 -8 -105 -109 -184
-194 -44 -47 -50 -57 -34 -61 19 -5 51 23 51 46 0 8 4 7 10 -3 5 -8 10 -10 10
-4 0 6 14 25 30 42 17 18 30 29 30 25 0 -4 16 10 35 30 38 40 51 47 36 19 -11
-22 -40 -132 -47 -182 -25 -189 -27 -193 -56 -222 -16 -15 -33 -28 -38 -28 -6
0 -10 -7 -10 -16 0 -12 7 -10 31 11 17 14 34 23 37 21 6 -7 -18 -37 -27 -32
-3 2 -14 -7 -24 -20 -16 -22 -16 -24 -1 -24 28 0 8 -67 -42 -142 -51 -77 -74
-127 -73 -160 0 -13 6 -2 13 24 16 59 74 147 139 213 l50 50 15 -32 15 -32
-51 -53 c-67 -71 -96 -108 -83 -108 6 0 11 4 11 8 0 14 130 145 137 138 3 -3
-10 -25 -29 -48 -34 -41 -218 -316 -218 -325 0 -7 -54 -78 -62 -81 -5 -2 -8
-9 -8 -15 0 -6 -16 -25 -36 -43 -20 -18 -33 -38 -29 -44 3 -5 2 -10 -4 -10 -5
0 -11 5 -13 11 -3 8 -10 6 -20 -5 -17 -17 -37 -21 -39 -8 -8 50 -7 77 2 94 6
11 8 22 5 25 -9 9 -28 -49 -29 -88 -1 -58 16 -69 86 -53 32 8 67 23 79 34 12
11 25 20 30 20 4 0 8 7 8 16 0 8 4 13 9 10 10 -6 35 20 44 47 4 9 14 17 23 17
10 0 14 5 10 16 -3 8 -2 12 4 9 6 -3 10 1 10 10 0 10 5 13 12 9 6 -4 8 -3 5 3
-7 11 39 86 96 153 l28 33 40 -18 c25 -12 38 -24 37 -34 -4 -20 -80 -92 -135
-128 -39 -25 -64 -63 -42 -63 14 0 -10 -41 -43 -72 -15 -14 -28 -24 -28 -22 0
3 -12 -8 -28 -23 -15 -15 -45 -43 -66 -60 -22 -18 -38 -35 -35 -38 3 -2 14 3
25 13 11 10 26 16 33 14 8 -3 11 0 7 7 -4 6 -2 11 4 11 15 0 41 26 33 34 -4 3
-1 7 5 7 21 2 27 4 62 19 19 7 37 17 40 20 6 9 119 70 128 70 4 0 -10 -11 -31
-25 -39 -27 -50 -43 -17 -25 11 6 20 8 20 5 0 -11 99 59 155 110 32 30 62 55
66 55 13 0 49 -38 49 -52 0 -25 98 -212 128 -244 45 -48 129 -114 145 -114 19
0 47 -37 47 -62 0 -25 22 -68 31 -62 5 3 9 0 9 -7 0 -7 8 -5 20 6 19 17 21 17
40 0 20 -18 20 -17 20 48 0 51 4 70 19 84 25 25 31 57 21 117 -5 28 -12 67
-15 86 -3 19 -8 62 -10 95 -3 33 -7 66 -10 73 -3 7 -1 11 4 8 5 -3 7 9 5 27
-1 17 -3 32 -4 32 -6 0 -6 36 0 40 10 6 0 48 -14 57 -7 5 -6 8 4 8 18 0 19 62
1 84 -9 11 -7 15 6 20 11 5 13 10 7 14 -13 9 -26 54 -13 46 13 -8 3 44 -12 62
-10 12 -10 15 1 12 15 -4 22 68 11 122 -13 66 37 178 73 164 18 -7 64 40 72
72 5 21 2 31 -15 45 -12 10 -27 19 -34 22 -9 3 -8 12 4 35 22 39 10 55 -39 55
-35 0 -40 3 -37 21 9 53 18 187 17 249 0 54 -4 72 -19 82 -10 7 -21 11 -25 9
-3 -2 -18 0 -31 5 -24 9 -34 8 -107 -17 -8 -3 -18 -4 -22 -4 -5 1 -8 -2 -8 -8
0 -5 -5 -10 -11 -10 -6 0 -17 -7 -26 -16 -9 -8 -22 -13 -30 -10 -9 4 -17 -1
-20 -13 -3 -11 -12 -22 -20 -25 -9 -4 -12 -1 -7 7 3 6 -6 -1 -21 -18 -14 -16
-23 -24 -19 -16 4 9 2 12 -7 9 -8 -3 -13 -11 -11 -17 1 -7 -2 -10 -8 -6 -6 3
-32 -15 -58 -42 -26 -26 -32 -34 -13 -18 l35 30 -34 -41 c-19 -23 -46 -55 -59
-70 -12 -16 -20 -22 -15 -14 4 8 14 23 22 33 8 9 11 17 6 17 -5 0 -19 -16 -32
-36 -13 -20 -19 -33 -13 -29 21 12 11 -13 -12 -29 -12 -9 -16 -14 -9 -11 23
11 12 -13 -15 -35 -16 -12 -22 -18 -15 -15 11 6 12 3 3 -13 -27 -50 -32 -39
-31 75 1 40 -4 82 -10 93 -8 16 -7 22 9 32 10 6 17 17 14 24 -2 7 2 11 10 11
17 -2 118 88 109 97 -3 4 1 4 10 1 9 -4 19 -1 24 6 4 8 3 10 -4 5 -18 -11 -14
0 5 15 11 10 14 10 9 2 -4 -7 -3 -13 2 -13 12 0 33 25 27 32 -3 3 3 11 12 19
17 13 17 13 3 -5 -13 -17 -13 -19 0 -14 8 3 15 13 15 24 1 26 10 39 47 66 17
12 28 17 24 10 -4 -7 -2 -12 4 -12 6 0 8 -5 5 -10 -4 -6 -16 -8 -28 -5 -19 5
-20 5 -5 -5 27 -17 84 29 79 62 0 4 9 12 20 19 17 9 20 8 14 -2 -6 -9 -3 -10
11 -4 28 12 124 13 166 2 52 -14 81 -3 95 34 10 25 9 35 -3 53 -16 25 -8 42
12 25 9 -8 11 -5 7 9 -2 11 0 23 6 26 22 14 12 56 -15 66 -40 16 -59 12 -87
-16 -14 -14 -31 -23 -37 -19 -9 6 -14 -7 -11 -28 1 -4 -11 0 -26 10 -15 10
-24 12 -20 6 5 -9 2 -13 -8 -13 -12 0 -15 -5 -11 -17 7 -16 -28 -63 -47 -63
-17 0 -158 -105 -212 -157 -7 -7 -15 -9 -19 -6 -3 4 -6 1 -6 -5 0 -6 -9 -16
-20 -22 -16 -9 -18 -8 -14 5 4 8 10 15 15 15 5 0 9 5 9 11 0 19 32 79 39 74 8
-4 87 74 133 132 14 18 28 30 31 27 2 -3 7 2 11 11 4 10 2 14 -5 9 -7 -4 -7 1
1 16 15 29 6 36 -26 21 -19 -8 -30 -9 -40 0 -7 6 -19 7 -25 3 -8 -4 -9 -3 -5
5 5 7 20 9 43 5 24 -5 34 -3 29 4 -4 7 5 7 29 -1 30 -9 33 -12 19 -20 -13 -8
-14 -11 -3 -18 7 -4 16 -4 19 1 3 5 31 10 63 11 31 1 57 6 57 10 0 3 8 9 18
12 9 4 44 22 77 41 61 36 95 45 95 25 0 -7 10 -9 24 -5 16 4 37 -1 60 -15 20
-12 36 -18 36 -15 0 3 16 -3 35 -14 20 -11 42 -20 49 -20 7 0 19 -7 26 -15 7
-8 16 -12 21 -10 9 6 70 -23 124 -59 20 -14 50 -28 68 -31 18 -4 41 -15 51
-24 11 -9 16 -10 12 -3 -12 21 8 13 22 -8 14 -23 44 -26 61 -6 11 14 35 16 46
5 3 -3 -28 -18 -67 -34 -40 -15 -102 -42 -138 -58 -36 -16 -94 -43 -130 -59
-36 -17 -108 -43 -161 -58 -150 -46 -152 -46 -139 -71 8 -14 17 -18 28 -14 9
4 49 16 87 27 39 10 77 21 85 24 8 3 15 4 16 2 0 -2 8 3 17 11 10 7 17 11 17
8 0 -3 37 8 82 24 46 16 87 29 91 29 5 0 -2 -13 -15 -28 -12 -16 -34 -44 -48
-62 -14 -19 -45 -57 -70 -86 -159 -183 -253 -325 -297 -444 -17 -46 -16 -48 7
-55 15 -5 20 -15 20 -44 0 -21 -3 -41 -7 -45 -5 -4 -8 -11 -9 -14 0 -4 -11
-29 -24 -57 -13 -27 -24 -52 -25 -55 -29 -95 -28 -129 5 -163 33 -35 77 -43
125 -23 20 9 45 16 54 15 11 0 9 -3 -6 -9 -23 -9 -32 -30 -13 -30 6 0 10 5 10
10 0 6 7 10 15 10 8 0 15 5 15 11 0 6 6 9 13 6 7 -3 19 4 26 14 6 11 16 17 21
14 6 -3 7 1 4 9 -4 11 0 16 10 16 9 0 15 3 14 8 -3 18 37 90 68 119 19 18 34
38 34 45 0 6 2 9 5 6 9 -9 75 54 68 65 -4 6 -1 7 7 2 7 -4 15 -3 19 2 6 10
158 120 229 166 25 17 40 32 36 39 -5 7 -2 9 8 5 9 -3 19 -3 22 1 8 8 46 14
46 7 0 -3 -4 -13 -10 -23 -8 -14 -27 -75 -36 -117 -1 -5 -6 -28 -12 -50 -13
-47 -13 -46 -48 -230 -20 -101 -26 -156 -33 -281 -1 -8 -33 -2 -90 16 -49 16
-113 33 -143 39 -29 6 -66 13 -83 17 -16 4 -71 7 -120 9 -50 1 -100 7 -113 14
-12 6 -26 9 -31 6 -5 -3 -11 -1 -13 5 -3 10 -20 14 -118 25 l-55 6 22 -19 c12
-11 19 -22 16 -26 -6 -6 22 -10 41 -7 5 1 12 -3 16 -9 3 -6 16 -12 28 -15 11
-2 30 -9 41 -15 12 -6 21 -8 21 -5 0 3 19 -8 42 -25 22 -16 47 -30 54 -30 7 0
18 -8 23 -17 6 -10 11 -14 11 -9 0 6 7 1 16 -10 8 -10 13 -14 10 -7 -7 13 31
6 40 -8 3 -5 -3 -6 -13 -2 -10 3 1 -8 24 -26 52 -38 64 -40 26 -5 l-28 26 33
-22 c17 -12 32 -26 32 -32 0 -6 28 -38 62 -71 33 -33 58 -55 54 -49 -5 8 -2
10 8 6 9 -3 14 -10 11 -14 -2 -4 9 -18 25 -30 16 -12 27 -26 25 -30 -3 -4 7
-16 22 -26 15 -9 39 -28 52 -40 14 -13 28 -21 32 -18 4 2 10 -5 14 -16 5 -16
10 -18 24 -10 10 5 22 6 26 2 3 -4 16 -8 28 -8 40 -3 67 -13 84 -30 12 -11 18
-13 21 -5 3 8 9 6 18 -6 13 -17 13 -17 14 0 0 22 2 21 51 -4 43 -22 69 -20 69
6 0 8 6 15 13 15 9 0 9 2 0 8 -7 4 -14 17 -16 27 -2 11 -7 28 -12 38 -4 10 -5
98 -1 195 6 168 9 208 21 277 2 17 7 59 11 95 3 36 8 68 10 72 4 7 9 32 19
108 4 30 23 135 30 170 4 14 8 36 11 50 3 14 7 32 9 40 2 8 4 20 5 25 0 6 5 2
11 -7 5 -10 15 -18 22 -18 7 0 18 -9 25 -20 7 -11 20 -20 30 -20 10 0 23 -5
30 -12 6 -6 23 -13 38 -14 15 -2 31 -9 35 -16 5 -7 9 -9 9 -4 0 6 5 5 12 -2 7
-7 20 -12 30 -12 10 0 18 -4 18 -10 0 -19 51 -10 88 15 20 14 42 25 49 25 20
0 143 83 143 96 0 7 60 42 133 79 72 37 137 70 142 74 6 3 2 -2 -8 -11 -11
-10 -15 -18 -10 -18 5 0 19 9 31 20 21 20 105 61 152 75 14 4 52 17 85 30 33
12 88 30 122 40 34 10 60 21 58 25 -3 4 3 7 13 7 26 -1 102 25 102 35 0 5 4 7
9 4 11 -7 72 4 67 13 -2 3 6 7 17 8 44 4 59 10 68 24 7 12 10 12 18 0 5 -8 11
-9 15 -3 3 6 19 8 34 5 15 -3 38 -6 52 -7 14 0 28 -6 33 -13 4 -6 21 -14 37
-18 38 -8 48 -24 25 -42 -18 -12 -18 -13 3 -14 21 -1 33 -4 50 -9 4 -1 11 -2
16 -1 5 1 5 -4 -1 -11 -6 -7 -12 -16 -12 -21 -3 -29 -16 -59 -30 -67 -9 -5
-11 -10 -4 -10 7 0 6 -12 -6 -37 -10 -21 -18 -52 -19 -70 -1 -17 -11 -50 -21
-73 -11 -25 -17 -55 -14 -72 3 -17 1 -28 -5 -24 -5 3 -7 -5 -4 -19 2 -14 -1
-31 -7 -39 -9 -11 -9 -15 1 -19 9 -4 10 -6 1 -6 -7 -1 -10 -8 -7 -16 4 -8 2
-15 -2 -15 -5 0 -9 -15 -9 -32 -1 -30 -5 -68 -22 -178 -2 -19 -5 -50 -6 -67
-1 -18 -6 -33 -11 -33 -4 0 -5 -16 -1 -36 4 -26 2 -39 -7 -45 -10 -7 -10 -9 0
-9 6 0 12 -5 12 -11 0 -5 -4 -8 -9 -5 -5 4 -6 -9 -1 -29 5 -23 4 -38 -4 -43
-14 -9 -18 -44 -3 -35 7 4 8 0 4 -11 -4 -10 -7 -21 -7 -25 0 -8 -27 -11 -97
-12 -35 0 -53 -4 -53 -12 0 -9 -2 -9 -8 0 -5 8 -19 9 -47 3 -21 -5 -43 -7 -47
-4 -4 3 -14 2 -20 -3 -17 -10 -27 -11 -143 -18 -55 -3 -111 -8 -125 -10 -14
-3 -47 -7 -75 -11 -27 -3 -70 -10 -95 -16 -25 -5 -56 -11 -70 -13 -14 -2 -56
-9 -93 -15 -37 -6 -72 -8 -77 -5 -5 3 -11 1 -14 -3 -3 -5 -23 -8 -46 -7 -22 1
-40 -2 -40 -8 0 -5 -11 -6 -25 -3 -14 4 -25 2 -25 -4 0 -5 -3 -9 -7 -9 -20 3
-34 -2 -28 -11 4 -6 -13 -11 -42 -11 -109 -4 -127 -6 -131 -19 -3 -7 0 -10 5
-7 9 6 199 19 243 17 32 -1 76 1 105 4 17 2 44 -3 60 -12 17 -9 34 -15 39 -13
5 1 4 -4 -2 -12 -9 -10 -9 -14 1 -15 37 -5 84 -12 102 -16 11 -2 23 2 27 8 6
8 8 7 8 -1 0 -9 7 -10 25 -3 16 6 25 6 25 0 0 -6 -6 -10 -12 -10 -9 0 -8 -3 2
-10 9 -6 20 -5 29 3 12 10 13 9 7 -2 -6 -9 -5 -12 5 -9 8 3 13 11 11 17 -1 7
2 9 9 6 6 -4 23 -11 37 -16 26 -9 26 -9 -5 -6 -18 2 -29 -1 -26 -5 3 -5 19 -8
37 -7 17 2 36 1 41 -3 10 -6 50 -13 120 -23 22 -3 46 -8 53 -10 6 -2 12 0 12
6 0 6 7 6 20 -1 15 -8 20 -8 20 1 0 8 4 8 15 -1 8 -7 24 -10 35 -7 11 3 20 2
20 -2 0 -4 10 -7 23 -8 34 -2 68 -11 83 -23 7 -7 18 -9 23 -6 5 4 13 1 17 -5
4 -8 3 -9 -4 -5 -7 4 -12 5 -12 2 0 -3 14 -12 30 -21 23 -12 30 -13 31 -3 0 7
5 2 10 -11 7 -18 12 -21 23 -12 11 9 16 9 22 0 4 -8 3 -9 -4 -5 -7 4 -12 5
-12 3 0 -3 18 -14 40 -26 40 -20 52 -17 28 8 -7 7 1 4 19 -5 17 -10 30 -21 28
-24 -2 -3 8 -5 23 -4 53 5 87 16 104 31 10 9 18 11 18 5 0 -6 -6 -13 -12 -16
-7 -2 -4 -4 7 -2 26 2 66 25 45 26 -9 0 -5 6 10 17 14 9 28 21 31 26 4 6 16 7
28 4 12 -3 21 -1 21 5 0 5 4 7 8 4 4 -2 6 11 4 31 -3 24 -1 33 6 29 6 -4 11 1
11 11 -1 10 2 29 6 43 5 20 4 22 -4 10 -9 -12 -11 -10 -6 10 30 145 30 159 20
380 -9 185 -11 588 -3 705 3 39 10 81 17 93 7 13 10 28 7 35 -2 7 -5 3 -5 -7
-2 -45 -14 -1 -15 54 -1 66 -3 64 74 75 24 4 49 10 55 13 5 4 19 8 30 8 11 1
38 5 60 8 76 13 160 12 225 -2 111 -23 140 -25 146 -7 3 8 10 12 15 9 5 -3 9
-1 9 5 0 5 -6 12 -12 14 -8 4 -7 6 3 6 32 2 26 56 -16 155 -6 14 -5 17 3 12 7
-4 12 -1 12 8 0 9 5 16 10 16 6 0 10 -4 10 -8 0 -15 38 -11 45 5 4 11 -12 34
-50 72 -30 30 -61 67 -67 82 -14 31 -78 55 -123 47 -14 -3 -28 -1 -31 4 -3 5
-12 3 -21 -4 -8 -6 -20 -13 -27 -15 -6 -1 -22 -5 -35 -9 -19 -6 -22 -4 -16 7
7 11 6 12 -6 3 -8 -6 -29 -11 -47 -11 -19 0 -38 -6 -43 -14 -7 -12 -9 -12 -9
0 0 11 -4 9 -15 -5 -11 -14 -14 -15 -15 -4 0 13 -1 13 -10 0 -5 -8 -10 -11
-10 -6 0 5 -10 1 -22 -10 -12 -10 -18 -13 -14 -6 9 16 -4 15 -45 -2 -32 -14
-36 -13 -67 11 -18 14 -52 42 -75 64 -23 21 -51 43 -62 48 -45 21 -192 64
-220 63 -47 0 -51 -2 -36 -11 24 -15 -8 -36 -57 -37 -50 -1 -93 -21 -90 -42 2
-11 -12 -15 -65 -16 -39 0 -67 3 -67 9 0 7 -3 7 -8 0 -7 -9 -62 -15 -62 -7 0
3 15 18 33 34 31 30 19 29 -16 0 -9 -8 -34 -18 -55 -21 -30 -5 -36 -10 -34
-27 2 -15 -9 -30 -35 -50 -34 -25 -52 -44 -75 -78 -4 -6 -10 -7 -14 -3 -4 4 6
22 23 40 16 17 43 50 59 72 57 79 74 90 194 128 63 20 129 39 145 43 41 10 45
11 48 14 1 1 25 4 53 5 27 1 66 7 85 14 44 14 71 16 144 7 54 -6 63 -5 79 13
22 24 36 27 36 7 0 -8 7 -17 16 -20 17 -7 54 10 54 24 0 6 15 10 33 10 25 0
39 7 55 29 18 25 19 31 7 41 -8 6 -20 8 -27 4 -11 -6 -11 -5 0 8 11 13 9 17
-15 23 -21 5 -24 8 -12 16 10 6 10 9 1 9 -7 0 -17 12 -22 26 -7 17 -16 24 -25
21 -9 -4 -12 -1 -8 9 3 9 -7 20 -33 32 -22 9 -49 26 -61 37 -30 26 -90 27
-130 3 -18 -11 -45 -21 -60 -23 -16 -2 -28 -4 -28 -5 0 -1 -8 -3 -19 -5 -10
-2 -41 -19 -70 -38 -62 -41 -184 -97 -212 -97 -2 0 8 29 21 65 14 36 22 65 20
65 -3 0 -1 9 5 20 11 21 14 146 5 212 -8 61 -21 82 -80 139 -32 30 -61 65 -66
78 -7 16 -15 22 -28 18 -10 -2 -24 -1 -32 3 -8 3 -22 5 -31 3z m-1602 -385 c4
-7 3 -8 -4 -4 -7 4 -12 3 -12 -2 0 -17 -41 -52 -53 -45 -8 4 -8 1 1 -9 11 -14
7 -21 -30 -50 -24 -19 -56 -42 -71 -52 -23 -14 -26 -20 -17 -31 7 -8 9 -18 6
-24 -8 -13 -239 -10 -306 4 l-55 11 85 42 c101 49 183 77 188 64 6 -18 53 12
48 30 -3 14 12 22 73 42 117 38 137 41 147 24z m2189 -287 c3 -5 17 -8 30 -5
14 2 25 0 25 -4 0 -5 -42 -12 -92 -15 -58 -4 -150 -20 -246 -45 -99 -25 -148
-34 -139 -25 8 8 23 16 33 18 10 2 19 4 19 5 0 1 7 3 15 5 8 1 40 10 70 19 30
9 69 16 85 17 17 1 55 6 85 12 30 5 65 10 78 9 13 -1 20 2 17 8 -3 6 -2 10 4
10 5 0 12 -4 16 -9z m-450 -111 c-3 -5 -12 -10 -18 -10 -7 0 -6 4 3 10 19 12
23 12 15 0z m501 -111 c3 -6 -5 -3 -20 6 -14 10 -26 19 -26 22 0 7 39 -17 46
-28z m64 -12 c0 -4 -9 -3 -20 3 -11 6 -20 15 -20 20 0 6 9 5 20 -2 11 -7 20
-16 20 -21z m-1420 -55 c0 -5 -7 -9 -15 -9 -8 0 -12 4 -9 9 3 4 9 8 15 8 5 0
9 -4 9 -8z m2045 0 c19 -13 15 -48 -6 -49 -12 -1 -19 5 -19 16 0 9 -5 22 -12
29 -9 9 -8 12 8 12 10 0 24 -4 29 -8z m-2044 -39 c13 -16 12 -17 -3 -4 -17 13
-22 21 -14 21 2 0 10 -8 17 -17z m1954 -1 c-3 -3 -11 0 -18 7 -9 10 -8 11 6 5
10 -3 15 -9 12 -12z m-3928 -36 c0 -8 -6 -12 -15 -9 -11 5 -11 7 0 14 7 5 13
9 14 9 0 0 1 -6 1 -14z m4068 4 c8 -13 -5 -13 -25 0 -13 8 -13 10 2 10 9 0 20
-4 23 -10z m-3937 -182 c-5 -18 -11 -40 -13 -48 -7 -42 -25 -66 -67 -91 -12
-6 -18 -6 -18 1 0 5 6 10 14 10 7 0 19 7 26 15 11 13 8 15 -18 15 -34 0 -167
-66 -224 -111 -21 -17 -38 -25 -38 -20 0 16 90 103 145 141 28 18 52 36 55 39
9 10 137 81 146 81 1 0 -2 -15 -8 -32z m-145 -163 c-3 -9 -8 -14 -10 -11 -3 3
-2 9 2 15 9 16 15 13 8 -4z m91 -51 c-5 -20 -71 -71 -86 -66 -5 1 -19 -3 -31
-10 -12 -7 -25 -11 -29 -10 -5 1 -8 -2 -8 -8 0 -5 -7 -10 -15 -10 -8 0 -15 -4
-15 -9 0 -5 -15 -16 -33 -24 -18 -9 -46 -27 -62 -41 -20 -18 -33 -22 -40 -15
-7 7 -4 14 9 21 10 6 26 18 35 27 23 22 65 49 138 88 35 17 79 43 100 57 41
28 44 28 37 0z m-193 -11 c-12 -20 -14 -14 -5 12 4 9 9 14 11 11 3 -2 0 -13
-6 -23z m2558 3 c-13 -12 -448 -160 -516 -175 -78 -19 -123 -20 -192 -5 -78
16 -85 21 -28 22 24 1 59 4 78 8 19 3 48 6 64 6 17 0 48 3 70 8 22 5 58 11 80
14 51 6 52 7 160 41 50 16 93 33 96 38 4 5 18 10 33 10 14 0 23 3 21 7 -3 5 3
6 13 4 9 -3 35 1 57 9 38 14 73 21 64 13z m-2594 -26 c-10 -11 -25 -20 -34
-19 -13 0 -14 2 -1 6 8 4 21 12 28 20 21 21 27 15 7 -7z m-60 -50 c-3 -5 -12
-10 -18 -10 -7 0 -6 4 3 10 19 12 23 12 15 0z m519 2 c2 -4 -5 -9 -17 -9 -17
-2 -19 0 -7 7 18 12 18 12 24 2z m-254 -36 c0 -16 -62 -61 -122 -89 -21 -10
-38 -20 -38 -23 0 -3 6 -2 13 1 6 4 3 -1 -7 -9 -11 -9 -26 -16 -33 -16 -7 0
-13 -7 -13 -16 0 -10 -6 -14 -15 -11 -8 4 -17 1 -21 -5 -5 -7 -2 -8 6 -3 9 5
11 4 6 -3 -4 -7 -11 -12 -17 -12 -5 0 -22 -14 -38 -31 -17 -17 -35 -28 -40
-24 -6 3 -9 0 -6 -7 3 -8 -6 -25 -20 -38 -23 -22 -25 -22 -25 -4 0 15 -2 16
-9 4 -6 -8 -7 -18 -5 -22 3 -4 1 -8 -4 -8 -14 0 -23 28 -11 35 5 4 6 11 3 17
-4 7 -2 8 4 4 7 -4 12 -1 12 6 0 38 160 166 266 213 33 14 70 32 84 40 31 18
30 18 30 1z m-310 -6 c0 -5 -2 -10 -4 -10 -3 0 -8 5 -11 10 -3 6 -1 10 4 10 6
0 11 -4 11 -10z m-60 -64 c0 -3 -4 -8 -10 -11 -5 -3 -10 -1 -10 4 0 6 5 11 10
11 6 0 10 -2 10 -4z m70 -14 c0 -5 -11 -15 -25 -22 -14 -7 -23 -16 -20 -18 7
-7 -15 -32 -29 -32 -6 0 -4 5 4 10 8 5 15 13 15 17 0 11 38 53 47 53 5 0 8 -4
8 -8z m897 -137 c0 -8 -4 -12 -9 -9 -5 3 -6 10 -3 15 9 13 12 11 12 -6z m-646
-46 c-13 -10 -20 -19 -16 -19 4 0 -9 -17 -29 -37 -20 -21 -36 -42 -36 -48 0
-6 -8 -18 -17 -26 -33 -29 -128 -143 -126 -150 1 -4 -13 -21 -33 -38 -19 -17
-33 -31 -30 -31 3 0 -5 -11 -18 -25 -28 -30 -36 -31 -87 -5 -35 18 -38 23 -28
42 9 16 13 18 20 7 7 -11 9 -11 9 2 0 9 9 19 20 22 13 3 20 14 20 29 0 17 9
29 28 39 15 7 46 32 69 54 24 22 50 46 58 53 9 7 12 18 9 24 -4 6 -3 8 3 5 10
-6 47 17 82 51 8 7 24 20 37 29 13 8 24 22 24 30 0 8 3 12 8 10 4 -3 16 -1 27
3 30 11 33 1 6 -21z m-51 1 c0 -5 -5 -10 -11 -10 -5 0 -7 5 -4 10 3 6 8 10 11
10 2 0 4 -4 4 -10z m-190 -164 c0 -2 -7 -7 -16 -10 -8 -3 -12 -2 -9 4 6 10 25
14 25 6z m223 -81 c-3 -9 -8 -14 -10 -11 -3 3 -2 9 2 15 9 16 15 13 8 -4z
m-23 -29 c0 -3 -4 -8 -10 -11 -5 -3 -10 -1 -10 4 0 6 5 11 10 11 6 0 10 -2 10
-4z m35 -26 c-4 -11 -2 -20 4 -20 9 0 3 -29 -10 -51 -2 -3 3 -14 11 -24 8 -11
10 -16 3 -12 -9 6 -11 -10 -9 -58 2 -36 -1 -68 -5 -71 -5 -3 -9 0 -9 5 0 6 -6
11 -13 11 -8 0 -22 9 -32 20 -13 14 -22 17 -30 10 -9 -7 -16 -6 -25 5 -7 8
-19 15 -27 15 -12 0 -11 5 4 23 39 51 137 167 141 167 2 0 0 -9 -3 -20z m575
-30 c-6 -11 -15 -20 -20 -20 -6 0 -2 9 7 20 10 11 19 20 21 20 1 0 -2 -9 -8
-20z m-661 -9 c-13 -11 -26 -17 -28 -15 -5 5 30 33 43 34 4 0 -2 -9 -15 -19z
m-34 -31 c3 -5 -1 -10 -10 -10 -9 0 -13 5 -10 10 3 6 8 10 10 10 2 0 7 -4 10
-10z m-280 -20 c3 -5 -4 -6 -15 -3 -11 3 -22 9 -25 13 -3 5 4 6 15 3 11 -3 22
-9 25 -13z m245 -29 c-5 -11 -15 -23 -21 -27 -6 -3 -3 5 6 20 20 30 30 35 15
7z m785 -71 c3 -5 2 -10 -4 -10 -5 0 -13 5 -16 10 -3 6 -2 10 4 10 5 0 13 -4
16 -10z m-905 -52 c0 -15 -109 -118 -126 -118 -7 0 -15 -6 -17 -12 -3 -8 -6
-6 -6 5 -1 9 3 17 8 17 5 0 31 22 59 50 27 27 52 46 56 43 3 -4 6 1 6 10 0 10
5 17 10 17 6 0 10 -5 10 -12z m1040 -143 c0 -8 -2 -15 -4 -15 -2 0 -6 7 -10
15 -3 8 -1 15 4 15 6 0 10 -7 10 -15z m1514 -83 c3 -5 -1 -9 -9 -9 -8 0 -12 4
-9 9 3 4 7 8 9 8 2 0 6 -4 9 -8z m-4 -32 c0 -5 -2 -10 -4 -10 -3 0 -8 5 -11
10 -3 6 -1 10 4 10 6 0 11 -4 11 -10z m313 -37 c-13 -2 -35 -2 -50 0 -16 2 -5
4 22 4 28 0 40 -2 28 -4z m60 0 c-7 -2 -19 -2 -25 0 -7 3 -2 5 12 5 14 0 19
-2 13 -5z m-2403 -83 c-6 -12 -14 -19 -17 -17 -2 3 1 15 7 27 6 12 14 19 17
17 2 -3 -1 -15 -7 -27z m-97 -130 c3 -11 1 -18 -4 -14 -5 3 -9 12 -9 20 0 20
7 17 13 -6z"/>
<path d="M2282 3821 c-11 -7 -10 -9 3 -14 9 -4 13 -3 10 2 -3 5 3 12 12 14 13
3 14 5 3 6 -8 0 -21 -3 -28 -8z"/>
<path d="M2320 3810 c-9 -6 -10 -10 -3 -10 6 0 15 5 18 10 8 12 4 12 -15 0z"/>
<path d="M2090 3159 c0 -5 5 -7 10 -4 6 3 10 8 10 11 0 2 -4 4 -10 4 -5 0 -10
-5 -10 -11z"/>
<path d="M963 2995 c0 -8 4 -15 9 -15 4 0 8 7 8 15 0 8 -4 15 -8 15 -5 0 -9
-7 -9 -15z"/>
<path d="M799 2973 c-13 -16 -12 -17 4 -4 9 7 17 15 17 17 0 8 -8 3 -21 -13z"/>
<path d="M4070 2966 c0 -2 7 -7 16 -10 8 -3 12 -2 9 4 -6 10 -25 14 -25 6z"/>
<path d="M841 2926 c-7 -8 -8 -17 -3 -20 6 -3 15 1 21 8 7 8 8 17 3 20 -6 3
-15 -1 -21 -8z"/>
<path d="M4495 2610 c-3 -5 -1 -10 4 -10 6 0 11 5 11 10 0 6 -2 10 -4 10 -3 0
-8 -4 -11 -10z"/>
<path d="M3820 2581 c0 -6 -9 -11 -19 -11 -11 0 -23 -5 -27 -11 -3 -6 -15 -9
-25 -6 -11 3 -19 1 -19 -5 0 -5 -4 -6 -10 -3 -5 3 -10 2 -10 -4 0 -5 -9 -8
-20 -6 -22 4 -90 -55 -90 -79 0 -9 -50 -39 -124 -75 -67 -33 -173 -94 -233
-135 -153 -104 -226 -140 -266 -131 -18 3 -46 6 -64 6 -17 0 -37 7 -44 15 -19
23 -37 16 -44 -18 -4 -18 -12 -39 -17 -45 -6 -7 -7 -13 -3 -13 4 0 2 -6 -4
-14 -8 -10 -9 -16 -1 -21 6 -3 7 -11 4 -17 -4 -6 -10 -5 -16 3 -16 24 2 -124
19 -151 19 -31 97 -104 115 -108 20 -5 48 -33 48 -49 0 -7 5 -13 10 -13 6 0
10 -9 10 -19 0 -11 9 -26 20 -34 11 -8 17 -17 13 -21 -4 -4 0 -4 9 -1 9 4 19
2 22 -4 6 -9 50 -6 70 6 5 4 21 7 35 8 14 2 36 6 49 10 16 5 22 3 22 -8 0 -8
7 -18 16 -21 22 -8 26 -8 19 4 -3 6 -1 10 4 10 6 0 11 14 11 30 0 20 5 30 15
30 8 0 15 6 15 13 0 11 95 67 113 67 4 0 34 13 67 29 57 28 61 28 70 11 11
-21 26 -21 56 0 21 15 24 20 24 40 0 5 21 21 46 36 25 15 43 32 41 38 -3 6 6
17 19 23 28 13 30 10 9 -11 -8 -8 -11 -17 -6 -20 5 -4 19 7 31 24 12 17 42 40
67 51 35 16 43 23 32 30 -10 6 -10 9 -1 9 6 0 12 5 12 10 0 6 -7 10 -16 10
-13 0 -12 6 7 38 13 20 29 41 36 45 7 4 13 15 13 22 0 8 4 15 9 15 5 0 11 9
14 21 3 11 15 23 26 26 12 3 21 10 21 15 0 5 4 7 9 4 5 -3 11 3 14 14 3 11 1
18 -4 14 -15 -9 -10 13 6 26 8 7 12 16 9 21 -3 5 -1 9 4 9 11 0 9 30 -3 49 -6
11 -4 13 10 7 15 -5 16 -4 5 9 -10 12 -10 15 4 15 10 0 15 4 12 9 -4 5 -2 21
4 36 14 37 -11 81 -57 100 -100 42 -193 64 -193 46z m-175 -221 c-7 -11 -45
-33 -45 -26 0 2 7 12 16 20 17 18 39 22 29 6z m-65 -40 c-8 -6 -22 -10 -30 -9
-9 0 -5 6 10 14 27 14 44 10 20 -5z m80 14 c0 -19 -34 -73 -42 -68 -6 4 -8 -2
-3 -15 3 -12 2 -21 -4 -21 -10 0 -27 -38 -23 -52 1 -5 -2 -8 -8 -8 -5 0 -6 -7
-3 -17 4 -11 3 -14 -5 -9 -7 4 -12 2 -12 -3 0 -6 6 -11 13 -11 9 0 9 -2 -1 -9
-7 -4 -12 -14 -10 -22 2 -8 -2 -13 -8 -12 -7 1 -14 -7 -17 -17 -3 -12 -1 -18
5 -14 7 5 9 -4 6 -24 -2 -17 -1 -29 4 -26 5 3 6 -5 3 -18 -3 -12 -6 -32 -8
-43 -4 -33 -17 -47 -31 -36 -16 13 -56 -13 -57 -37 0 -11 -2 -12 -6 -4 -6 15
-70 -36 -65 -52 2 -6 0 -8 -4 -4 -4 4 -19 -1 -34 -12 -28 -20 -91 -47 -77 -34
4 4 0 15 -9 25 -15 16 -14 17 5 12 15 -4 21 -1 21 12 0 11 -5 15 -15 11 -9 -3
-15 0 -15 8 0 8 -11 21 -25 30 -14 9 -23 21 -20 26 8 13 -5 40 -20 40 -7 0
-16 7 -19 16 -4 10 -2 13 7 8 10 -6 -20 22 -73 68 -8 7 -18 12 -22 10 -5 -1
-8 2 -8 8 0 5 7 10 16 10 32 0 256 124 275 153 3 5 10 9 15 9 17 0 39 17 31
24 -4 4 -13 2 -19 -4 -17 -17 -28 -15 -22 3 4 8 14 15 24 15 11 0 22 5 25 10
3 6 11 10 18 10 6 0 3 -6 -8 -13 -10 -8 -14 -17 -8 -20 5 -3 56 18 114 48 106
54 119 59 119 49z m-481 -238 c-2 -2 -15 -7 -29 -10 l-25 -7 25 15 c21 12 42
14 29 2z m325 -200 c-3 -8 -13 -17 -22 -21 -13 -5 -13 -2 3 15 21 24 26 25 19
6z"/>
<path d="M3107 2396 c-105 -58 -111 -68 -10 -16 46 23 85 46 89 51 7 13 8 13
-79 -35z"/>
<path d="M2965 2320 c-3 -6 1 -7 9 -4 18 7 21 14 7 14 -6 0 -13 -4 -16 -10z"/>
<path d="M305 1809 c-4 -6 -5 -12 -2 -15 2 -3 7 2 10 11 7 17 1 20 -8 4z"/>
<path d="M280 1765 c-7 -9 -11 -17 -9 -20 3 -2 10 5 17 15 14 24 10 26 -8 5z"/>
<path d="M128 1642 c-9 -15 -28 -40 -42 -55 -14 -15 -21 -27 -16 -27 10 0 90
91 90 103 0 16 -17 5 -32 -21z"/>
<path d="M2056 1221 c-4 -7 -5 -15 -2 -18 9 -9 19 4 14 18 -4 11 -6 11 -12 0z"/>
<path d="M2083 1204 c0 -9 4 -11 12 -4 7 5 14 9 16 7 2 -1 3 0 1 2 -7 11 -29
7 -29 -5z"/>
</g>
</svg>
